<svg version="1.1" id="Layer_1" xmlns="http://www.w3.org/2000/svg" xmlns:xlink="http://www.w3.org/1999/xlink" x="0px" y="0px"
	 width="100%" viewBox="0 0 2100 1500" enable-background="new 0 0 2100 1500" xml:space="preserve">
<path fill="#FFFFFF" opacity="1.000000" stroke="none" 
	d="
M1303.000000,1501.000000 
	C868.666687,1501.000000 434.833344,1501.000000 1.000000,1501.000000 
	C1.000000,1001.000000 1.000000,501.000000 1.000000,1.000000 
	C701.000000,1.000000 1401.000000,1.000000 2101.000000,1.000000 
	C2101.000000,501.000000 2101.000000,1001.000000 2101.000000,1501.000000 
	C1835.166626,1501.000000 1569.333374,1501.000000 1303.000000,1501.000000 
M217.048935,283.691711 
	C217.068893,303.514435 217.088852,323.337189 217.044525,344.075287 
	C217.030334,344.574951 217.003723,345.074585 217.003723,345.574249 
	C217.001251,666.395020 217.000214,987.215820 217.012177,1308.036621 
	C217.012222,1309.302002 217.199066,1310.567505 217.286926,1311.683594 
	C780.358826,1311.683594 1343.077026,1311.683594 1906.000000,1311.683594 
	C1906.000000,1309.387939 1906.000000,1307.404175 1906.000000,1305.420532 
	C1906.000000,1013.431946 1906.000488,721.443359 1905.998413,429.454742 
	C1905.998291,415.622070 1905.974365,401.789398 1906.037109,387.034393 
	C1905.979370,365.955841 1905.921631,344.877319 1905.944946,322.889709 
	C1905.944946,262.651367 1905.944946,202.413055 1905.944946,142.205078 
	C1342.702026,142.205078 780.064636,142.205078 216.999939,142.205078 
	C216.999939,150.522018 216.991043,158.640671 217.001465,166.759293 
	C217.051102,205.414261 217.105988,244.069214 217.048935,283.691711 
z"/>
<path fill="#222342" opacity="1.000000" stroke="none" 
	d="
M1905.961548,387.956726 
	C1905.974365,401.789398 1905.998291,415.622070 1905.998413,429.454742 
	C1906.000488,721.443359 1906.000000,1013.431946 1906.000000,1305.420532 
	C1906.000000,1307.404175 1906.000000,1309.387939 1906.000000,1311.683594 
	C1343.077026,1311.683594 780.358826,1311.683594 217.286926,1311.683594 
	C217.199066,1310.567505 217.012222,1309.302002 217.012177,1308.036621 
	C217.000214,987.215820 217.001251,666.395020 217.003723,345.574249 
	C217.003723,345.074585 217.030334,344.574951 217.399994,343.681213 
	C232.919525,354.153687 248.034073,365.090454 263.279877,375.841003 
	C267.474152,378.798645 271.535034,381.459381 270.068542,387.604401 
	C269.878876,388.399017 270.627563,389.399261 270.881134,390.320923 
	C273.180878,398.679443 278.931396,404.210815 285.710175,409.126648 
	C313.488556,429.270996 341.141846,449.587891 368.913849,469.741119 
	C371.871613,471.887451 373.107544,474.145294 373.099976,477.956787 
	C372.962708,546.933899 372.999939,615.911316 372.999939,684.888672 
	C372.999939,686.825317 372.999939,688.762024 372.999939,690.732666 
	C540.267151,690.732666 706.956543,690.732666 874.040039,690.732666 
	C874.040039,636.685486 874.040039,582.904785 874.412964,529.070557 
	C881.476501,527.202332 883.695068,524.389282 884.049866,517.605164 
	C884.158691,515.524475 884.654541,513.464111 885.446167,511.412964 
	C939.125610,511.720062 992.349182,510.425812 1045.517578,513.888123 
	C1064.361572,515.115234 1083.273315,515.296509 1102.152710,515.993652 
	C1119.364502,516.629089 1136.571289,517.420776 1153.786133,517.950684 
	C1169.712402,518.440918 1185.646606,518.676392 1201.577271,519.021362 
	C1203.409302,519.060974 1205.242188,519.059937 1207.073486,519.116943 
	C1224.454346,519.658142 1241.834717,520.207886 1259.580811,520.897522 
	C1261.334351,525.333679 1262.722412,529.627502 1264.066406,534.393188 
	C1264.022461,586.792847 1264.022461,638.720764 1264.022461,690.738037 
	C1431.235718,690.738037 1597.935547,690.738037 1765.000000,690.738037 
	C1765.000000,688.682678 1765.000000,686.884949 1765.000000,685.087158 
	C1765.000000,635.598999 1764.949097,586.110657 1765.122681,536.623108 
	C1765.133545,533.553040 1766.155884,529.907715 1767.994995,527.522644 
	C1776.119507,516.986328 1783.972778,506.077087 1793.300903,496.667664 
	C1810.886597,478.928619 1829.450562,462.161072 1847.531860,444.910034 
	C1850.772095,441.818573 1854.721191,438.823242 1856.453369,434.940521 
	C1859.527100,428.050903 1864.840210,423.525116 1870.112671,418.798004 
	C1880.656250,409.345093 1891.300415,400.004028 1901.944214,390.663635 
	C1903.148193,389.607330 1904.616089,388.851746 1905.961548,387.956726 
M1040.122803,946.629517 
	C1014.217773,968.109863 988.688843,990.066833 962.276550,1010.904114 
	C944.473999,1024.948975 924.666138,1035.729492 902.079651,1040.734009 
	C891.731445,1043.026855 883.243774,1042.107178 876.075317,1033.200806 
	C867.204529,1022.179077 857.599243,1011.744690 848.224670,1001.133179 
	C832.345337,983.158569 816.982483,964.673279 800.245483,947.532471 
	C791.176392,938.244629 780.327698,930.274902 769.168274,923.561707 
	C757.236877,916.384155 738.625793,918.126587 727.809875,929.886841 
	C721.383606,936.874146 714.536804,943.476685 707.833740,950.207092 
	C684.304443,973.832581 663.794800,999.740173 647.983765,1029.212036 
	C647.552124,1030.016602 646.935608,1030.721924 645.999634,1032.048340 
	C643.837219,1028.196411 641.991333,1024.899902 640.137512,1021.607849 
	C635.808411,1013.919617 631.850220,1005.990906 627.063721,998.598633 
	C617.993713,984.591370 594.720276,983.349915 585.582764,1000.312927 
	C581.123596,1008.591064 581.918030,1016.671509 586.146851,1024.450684 
	C595.983093,1042.545166 605.860962,1060.630005 616.316162,1078.368530 
	C620.333923,1085.185425 625.413452,1091.600952 630.998840,1097.214844 
	C638.600586,1104.855347 647.894226,1108.045898 658.425781,1102.799438 
	C670.896362,1096.586792 681.039612,1088.557129 683.135620,1073.356079 
	C683.915955,1067.696289 685.558777,1061.824707 688.234924,1056.811279 
	C704.540039,1026.266479 726.350952,999.926270 751.032471,975.809143 
	C754.139526,972.773071 756.247925,972.406738 759.194763,975.558350 
	C772.047729,989.305115 785.261841,1002.726501 797.790833,1016.760681 
	C812.874817,1033.656738 827.243713,1051.189209 842.202332,1068.199707 
	C860.873169,1089.431641 884.790283,1094.222412 911.354980,1088.778687 
	C931.197388,1084.712524 949.566895,1076.648926 967.030884,1066.418945 
	C992.190369,1051.681030 1014.228149,1032.824951 1036.424316,1014.172485 
	C1054.664917,998.844177 1072.907959,983.517029 1090.981201,967.992981 
	C1095.164917,964.399353 1098.074341,964.733398 1101.940430,968.505432 
	C1119.115234,985.262329 1136.399414,1001.912109 1153.895020,1018.333313 
	C1166.891479,1030.531738 1180.085083,1042.536377 1193.548950,1054.214722 
	C1202.606201,1062.070679 1213.393677,1066.823120 1225.415039,1067.948486 
	C1238.421753,1069.166016 1250.400024,1065.256104 1261.757324,1059.305298 
	C1280.728394,1049.365234 1294.416016,1033.696533 1306.866211,1016.851562 
	C1323.563599,994.260071 1335.040161,968.687317 1347.922363,943.923279 
	C1349.166382,941.532043 1350.693115,939.287903 1352.308472,936.610901 
	C1356.396606,940.020630 1360.091431,942.869019 1363.524536,946.004150 
	C1382.843750,963.646545 1402.018433,981.447876 1421.403809,999.017029 
	C1436.713989,1012.893005 1452.113037,1026.678345 1467.740234,1040.194458 
	C1480.586792,1051.305420 1495.521851,1057.989014 1512.756348,1056.795898 
	C1520.529297,1056.257935 1528.689697,1054.510864 1535.717285,1051.250122 
	C1559.384277,1040.268311 1582.663086,1028.442871 1605.969849,1016.700989 
	C1608.827759,1015.261230 1611.465332,1012.731873 1613.325684,1010.088684 
	C1618.741211,1002.394653 1620.064819,993.800720 1615.959106,985.199646 
	C1611.832275,976.553711 1604.728760,971.326294 1594.837769,972.168152 
	C1589.360596,972.634338 1583.646362,974.031189 1578.703857,976.397278 
	C1560.538086,985.093445 1542.640137,994.349731 1524.662598,1003.437134 
	C1513.222534,1009.219788 1503.795044,1007.964844 1493.873413,998.641113 
	C1462.791016,969.431763 1431.053223,940.910767 1399.218628,912.516357 
	C1389.307739,903.676758 1378.804932,895.269897 1367.641479,888.119690 
	C1350.890259,877.390442 1332.166748,880.441406 1320.022583,896.476379 
	C1318.615234,898.334717 1317.042969,900.114502 1315.926758,902.140015 
	C1307.191528,917.990601 1298.196411,933.712219 1289.968628,949.824585 
	C1280.079590,969.190430 1269.480469,988.019470 1254.246826,1003.761047 
	C1250.225830,1007.916138 1245.826416,1012.046509 1240.851929,1014.867493 
	C1229.893311,1021.081970 1228.333374,1020.190735 1220.670654,1013.296326 
	C1207.293701,1001.261047 1194.115356,989.001465 1180.996460,976.683960 
	C1163.505005,960.260803 1146.334961,943.491333 1128.686157,927.240662 
	C1109.607910,909.673950 1088.176025,909.505615 1068.027832,924.388916 
	C1058.656250,931.311768 1049.757812,938.875366 1040.122803,946.629517 
z"/>
<path fill="#222342" opacity="1.000000" stroke="none" 
	d="
M217.159012,282.724182 
	C217.105988,244.069214 217.051102,205.414261 217.001465,166.759293 
	C216.991043,158.640671 216.999939,150.522018 216.999939,142.205078 
	C780.064636,142.205078 1342.702026,142.205078 1905.944946,142.205078 
	C1905.944946,202.413055 1905.944946,262.651367 1905.597290,323.482269 
	C1884.863770,341.498016 1864.245361,358.659058 1844.185913,376.450287 
	C1833.496216,385.931274 1823.644897,396.377289 1813.659424,406.625641 
	C1807.310791,413.141541 1801.673096,420.356689 1795.244507,426.786255 
	C1786.650513,435.381805 1777.602173,443.523407 1768.739868,451.850342 
	C1767.727417,452.801483 1766.656006,453.689850 1764.794922,455.325287 
	C1764.794922,418.209229 1764.794922,382.181580 1764.794922,346.321838 
	C1597.596069,346.321838 1430.920044,346.321838 1264.098999,346.321838 
	C1264.098999,382.773254 1264.098999,418.902893 1263.916504,455.332916 
	C1259.279419,459.946503 1259.928833,465.555359 1259.481934,471.180939 
	C1257.525513,471.589447 1255.919312,472.012360 1254.328369,471.961304 
	C1245.884644,471.690247 1237.446289,471.255463 1229.003174,470.962463 
	C1217.415894,470.560333 1205.824463,470.277924 1194.237671,469.865417 
	C1178.023804,469.288239 1161.812866,468.632751 1145.600220,468.021179 
	C1126.564575,467.303070 1107.528809,466.589691 1088.492676,465.886444 
	C1071.787109,465.269287 1055.084351,464.532471 1038.374023,464.093903 
	C1014.460205,463.466248 990.542664,462.855194 966.622864,462.616852 
	C939.144409,462.343018 911.661804,462.483643 884.164062,462.073273 
	C883.065857,454.186859 881.315735,452.324463 873.954224,450.374634 
	C873.975769,415.342529 873.975769,380.768127 873.975769,346.320251 
	C706.622009,346.320251 539.934692,346.320251 372.747498,346.320251 
	C372.747498,362.653625 372.747498,378.669922 372.747498,395.139648 
	C371.637054,394.431732 371.073486,394.113586 370.553772,393.735260 
	C339.716431,371.289093 308.921021,348.785095 278.034973,326.406128 
	C257.810577,311.752197 237.455551,297.278564 217.159012,282.724182 
z"/>
<path fill="#B2F5EC" opacity="1.000000" stroke="none" 
	d="
M217.103973,283.207947 
	C237.455551,297.278564 257.810577,311.752197 278.034973,326.406128 
	C308.921021,348.785095 339.716431,371.289093 370.553772,393.735260 
	C371.073486,394.113586 371.637054,394.431732 372.747498,395.139648 
	C372.747498,378.669922 372.747498,362.653625 372.747498,346.320251 
	C539.934692,346.320251 706.622009,346.320251 873.975769,346.320251 
	C873.975769,380.768127 873.975769,415.342529 873.569336,450.394226 
	C867.702454,451.101349 865.163452,454.709259 864.229553,459.392334 
	C863.695496,462.070282 864.266541,464.993256 864.494019,467.793396 
	C864.998718,474.005127 866.185608,480.223572 866.031006,486.412689 
	C865.774841,496.666779 864.464050,506.890442 864.014954,517.145203 
	C863.710999,524.085205 867.053528,527.684814 874.040039,529.124146 
	C874.040039,582.904785 874.040039,636.685486 874.040039,690.732666 
	C706.956543,690.732666 540.267151,690.732666 372.999939,690.732666 
	C372.999939,688.762024 372.999939,686.825317 372.999939,684.888672 
	C372.999939,615.911316 372.962708,546.933899 373.099976,477.956787 
	C373.107544,474.145294 371.871613,471.887451 368.913849,469.741119 
	C341.141846,449.587891 313.488556,429.270996 285.710175,409.126648 
	C278.931396,404.210815 273.180878,398.679443 270.881134,390.320923 
	C270.627563,389.399261 269.878876,388.399017 270.068542,387.604401 
	C271.535034,381.459381 267.474152,378.798645 263.279877,375.841003 
	C248.034073,365.090454 232.919525,354.153687 217.432129,343.223511 
	C217.088852,323.337189 217.068893,303.514435 217.103973,283.207947 
M712.945190,628.481018 
	C727.215271,618.726807 738.821106,606.668213 743.005371,589.421143 
	C749.627014,562.127625 746.264832,535.493958 734.853882,510.076416 
	C728.865784,496.738098 721.304016,484.112122 714.627197,471.075195 
	C709.467957,461.001587 705.600037,450.557312 708.854858,438.983307 
	C712.529724,425.915222 721.503113,417.492065 733.256409,411.454010 
	C742.503479,406.703491 751.619873,404.400116 761.883545,408.825348 
	C767.421143,411.212921 773.012634,408.244812 774.680908,403.538055 
	C776.573914,398.197235 774.404053,392.877045 768.702942,390.365814 
	C760.536072,386.768463 752.102295,384.763611 743.004578,386.703918 
	C730.680603,389.332275 719.638611,394.773315 710.039246,402.603546 
	C692.092346,417.242950 684.515137,436.257263 688.889282,459.300995 
	C691.702820,474.122864 699.751160,486.799622 707.165710,499.563171 
	C719.921204,521.520874 727.362061,544.702393 725.949646,570.337769 
	C725.237915,583.256653 721.685486,595.248718 711.504761,603.703857 
	C703.368958,610.460693 694.378174,616.312256 685.286072,621.763672 
	C672.194519,629.613037 667.420288,641.803711 666.020203,655.927917 
	C665.525391,660.919495 668.931335,664.989136 673.267334,665.942932 
	C677.896423,666.961121 682.198425,665.007263 684.324707,660.290527 
	C685.883179,656.833191 686.313843,652.839905 688.036804,649.491821 
	C689.852112,645.964478 692.038513,642.193115 695.074097,639.824585 
	C700.421753,635.652100 706.538269,632.465088 712.945190,628.481018 
M524.082397,540.579712 
	C521.826050,542.544983 519.587158,544.530701 517.310059,546.471680 
	C510.732910,552.078186 503.039703,556.793335 497.770416,563.434082 
	C484.581299,580.055908 474.029785,598.441528 468.293427,619.054199 
	C464.356476,633.200867 467.896332,646.743042 474.169281,659.599121 
	C476.191559,663.743652 480.015900,665.564270 484.565155,664.867554 
	C488.913879,664.201599 492.156891,661.418152 492.555328,657.083862 
	C492.842743,653.957336 491.923157,650.461487 490.670929,647.498474 
	C486.236511,637.005798 485.627930,626.587036 490.171356,616.025330 
	C491.091736,613.885742 492.081635,611.774231 493.096893,609.677551 
	C502.159058,590.961731 512.513977,573.406494 530.635681,561.582397 
	C539.941711,555.510376 546.650818,546.675659 551.682007,536.679321 
	C555.193420,529.702515 555.797546,522.432861 554.438904,514.835388 
	C551.550232,498.682373 543.882263,484.572083 534.087952,471.949249 
	C525.367554,460.710510 514.657104,451.035797 505.168549,440.365326 
	C500.025757,434.581970 494.644287,428.659698 491.111786,421.891266 
	C487.342316,414.668793 490.880646,408.358582 498.607361,406.004242 
	C502.358826,404.861145 506.376831,404.496033 510.305054,404.052216 
	C516.298706,403.375000 519.952759,399.727661 519.982117,394.055481 
	C520.011353,388.418243 516.347229,384.270599 510.406647,384.090973 
	C506.130310,383.961639 501.739288,384.301117 497.549469,385.161774 
	C466.728821,391.492828 463.470001,421.731537 477.403748,438.853607 
	C486.405762,449.915527 496.777924,459.874786 506.687592,470.182495 
	C517.665894,481.601837 525.917419,494.699402 532.186035,509.219543 
	C536.751953,519.795715 535.070374,528.924011 527.357483,537.193604 
	C526.448914,538.167786 525.511902,539.115601 524.082397,540.579712 
z"/>
<path fill="#B2F5EC" opacity="1.000000" stroke="none" 
	d="
M1264.098999,455.032501 
	C1264.098999,418.902893 1264.098999,382.773254 1264.098999,346.321838 
	C1430.920044,346.321838 1597.596069,346.321838 1764.794922,346.321838 
	C1764.794922,382.181580 1764.794922,418.209229 1764.794922,455.325287 
	C1766.656006,453.689850 1767.727417,452.801483 1768.739868,451.850342 
	C1777.602173,443.523407 1786.650513,435.381805 1795.244507,426.786255 
	C1801.673096,420.356689 1807.310791,413.141541 1813.659424,406.625641 
	C1823.644897,396.377289 1833.496216,385.931274 1844.185913,376.450287 
	C1864.245361,358.659058 1884.863770,341.498016 1905.556763,323.936798 
	C1905.921631,344.877319 1905.979370,365.955841 1905.999268,387.495544 
	C1904.616089,388.851746 1903.148193,389.607330 1901.944214,390.663635 
	C1891.300415,400.004028 1880.656250,409.345093 1870.112671,418.798004 
	C1864.840210,423.525116 1859.527100,428.050903 1856.453369,434.940521 
	C1854.721191,438.823242 1850.772095,441.818573 1847.531860,444.910034 
	C1829.450562,462.161072 1810.886597,478.928619 1793.300903,496.667664 
	C1783.972778,506.077087 1776.119507,516.986328 1767.994995,527.522644 
	C1766.155884,529.907715 1765.133545,533.553040 1765.122681,536.623108 
	C1764.949097,586.110657 1765.000000,635.598999 1765.000000,685.087158 
	C1765.000000,686.884949 1765.000000,688.682678 1765.000000,690.738037 
	C1597.935547,690.738037 1431.235718,690.738037 1264.022461,690.738037 
	C1264.022461,638.720764 1264.022461,586.792847 1264.437012,534.469360 
	C1271.941406,539.147156 1281.609741,534.772644 1281.028564,524.681946 
	C1280.867065,521.877136 1280.563843,519.079834 1280.300293,516.281555 
	C1279.964355,512.714233 1279.278564,509.429443 1282.537720,506.264435 
	C1285.433105,503.452728 1286.007690,498.779114 1283.132935,495.769836 
	C1279.327881,491.786896 1280.070068,487.386475 1280.053589,482.871399 
	C1280.034424,477.553802 1280.073975,472.235931 1280.051147,466.918365 
	C1280.003906,455.852509 1274.662964,451.881592 1264.098999,455.032501 
M1423.426147,430.079010 
	C1416.102051,422.633392 1415.648560,412.151367 1423.574097,405.006012 
	C1441.418091,388.918304 1461.513916,377.338959 1486.598145,378.062347 
	C1497.885742,378.387878 1509.148438,379.540283 1520.435791,379.926697 
	C1526.826050,380.145447 1530.935303,376.145844 1531.123901,370.499756 
	C1531.321167,364.592560 1527.678101,360.441132 1521.436523,360.023468 
	C1509.168335,359.202576 1496.889771,358.134186 1484.607056,358.011139 
	C1454.690796,357.711456 1430.094238,371.086578 1409.209351,390.830078 
	C1392.475586,406.649384 1391.590942,436.659088 1417.776978,450.724182 
	C1428.858887,456.676575 1440.729614,461.231018 1452.443970,465.915497 
	C1464.482422,470.729584 1476.909180,474.582611 1488.897949,479.508484 
	C1497.773193,483.155151 1501.688232,490.689453 1502.044434,500.156128 
	C1502.685181,517.189331 1499.046387,533.137756 1490.540283,548.015991 
	C1481.838745,563.236206 1470.479370,574.627014 1452.419922,578.263855 
	C1444.156860,579.927856 1436.075439,582.869690 1428.183960,585.933533 
	C1403.562744,595.492737 1382.400391,609.884277 1368.100586,632.578369 
	C1360.716431,644.297424 1359.136719,657.533875 1363.079224,670.933716 
	C1364.966431,677.348267 1370.510010,680.240906 1375.653564,678.661072 
	C1381.337769,676.915100 1383.549683,672.550049 1382.149780,665.583130 
	C1380.103149,655.397095 1382.000366,646.279602 1388.604004,638.017883 
	C1397.373047,627.047302 1407.983887,618.518982 1420.255005,611.737305 
	C1434.702881,603.752686 1450.553833,599.828979 1466.106323,595.020691 
	C1475.826538,592.015625 1484.515137,587.552307 1491.594360,580.019958 
	C1501.055176,569.953613 1508.465942,558.598083 1514.008423,545.993713 
	C1521.283691,529.448242 1523.691284,511.937683 1521.700317,494.231110 
	C1519.585815,475.426697 1507.460083,464.090027 1490.130249,457.910492 
	C1477.124146,453.272766 1463.912720,449.153290 1451.124146,443.982971 
	C1441.785889,440.207672 1432.987305,435.097961 1423.426147,430.079010 
M1650.764282,463.713776 
	C1648.609131,453.825012 1647.515015,443.749146 1651.636963,434.288391 
	C1655.733765,424.885223 1660.610229,415.754425 1665.887939,406.949707 
	C1672.801147,395.416199 1682.876587,390.677429 1696.441284,394.536682 
	C1701.338257,395.929932 1706.637939,392.473785 1707.873779,387.974274 
	C1709.350342,382.597290 1706.814331,377.072388 1701.526001,375.444183 
	C1689.799194,371.833771 1678.297729,372.282166 1667.231812,378.147430 
	C1656.584839,383.790619 1650.581421,393.600861 1644.194092,403.170227 
	C1627.188354,428.647614 1624.897095,455.654449 1635.451050,484.060486 
	C1641.417114,500.118042 1647.755737,516.043457 1653.398926,532.212524 
	C1657.441406,543.795166 1661.024048,555.588989 1659.036499,568.229370 
	C1657.453247,578.299500 1654.994263,588.288208 1646.640869,594.687805 
	C1636.524414,602.438110 1625.782104,609.485901 1614.789917,615.952637 
	C1596.072388,626.964050 1577.662720,638.338196 1562.976074,654.585449 
	C1558.126465,659.950256 1554.056885,666.198059 1550.555908,672.551941 
	C1547.358521,678.355103 1549.706055,684.309082 1555.023682,686.991333 
	C1559.668213,689.334045 1564.983765,687.094299 1568.328125,681.477722 
	C1570.112061,678.481506 1571.820312,675.406860 1573.918213,672.636902 
	C1582.599243,661.174866 1594.019287,652.753601 1605.940796,645.124084 
	C1619.946533,636.160706 1634.539551,628.115845 1648.562622,619.178101 
	C1675.358276,602.099792 1683.270386,576.561707 1677.828125,546.865784 
	C1675.006958,531.473022 1668.770264,516.686462 1663.825073,501.709106 
	C1659.714966,489.260956 1655.237061,476.934235 1650.764282,463.713776 
z"/>
<path fill="#B1F4EB" opacity="1.000000" stroke="none" 
	d="
M1040.383789,946.389038 
	C1049.757812,938.875366 1058.656250,931.311768 1068.027832,924.388916 
	C1088.176025,909.505615 1109.607910,909.673950 1128.686157,927.240662 
	C1146.334961,943.491333 1163.505005,960.260803 1180.996460,976.683960 
	C1194.115356,989.001465 1207.293701,1001.261047 1220.670654,1013.296326 
	C1228.333374,1020.190735 1229.893311,1021.081970 1240.851929,1014.867493 
	C1245.826416,1012.046509 1250.225830,1007.916138 1254.246826,1003.761047 
	C1269.480469,988.019470 1280.079590,969.190430 1289.968628,949.824585 
	C1298.196411,933.712219 1307.191528,917.990601 1315.926758,902.140015 
	C1317.042969,900.114502 1318.615234,898.334717 1320.022583,896.476379 
	C1332.166748,880.441406 1350.890259,877.390442 1367.641479,888.119690 
	C1378.804932,895.269897 1389.307739,903.676758 1399.218628,912.516357 
	C1431.053223,940.910767 1462.791016,969.431763 1493.873413,998.641113 
	C1503.795044,1007.964844 1513.222534,1009.219788 1524.662598,1003.437134 
	C1542.640137,994.349731 1560.538086,985.093445 1578.703857,976.397278 
	C1583.646362,974.031189 1589.360596,972.634338 1594.837769,972.168152 
	C1604.728760,971.326294 1611.832275,976.553711 1615.959106,985.199646 
	C1620.064819,993.800720 1618.741211,1002.394653 1613.325684,1010.088684 
	C1611.465332,1012.731873 1608.827759,1015.261230 1605.969849,1016.700989 
	C1582.663086,1028.442871 1559.384277,1040.268311 1535.717285,1051.250122 
	C1528.689697,1054.510864 1520.529297,1056.257935 1512.756348,1056.795898 
	C1495.521851,1057.989014 1480.586792,1051.305420 1467.740234,1040.194458 
	C1452.113037,1026.678345 1436.713989,1012.893005 1421.403809,999.017029 
	C1402.018433,981.447876 1382.843750,963.646545 1363.524536,946.004150 
	C1360.091431,942.869019 1356.396606,940.020630 1352.308472,936.610901 
	C1350.693115,939.287903 1349.166382,941.532043 1347.922363,943.923279 
	C1335.040161,968.687317 1323.563599,994.260071 1306.866211,1016.851562 
	C1294.416016,1033.696533 1280.728394,1049.365234 1261.757324,1059.305298 
	C1250.400024,1065.256104 1238.421753,1069.166016 1225.415039,1067.948486 
	C1213.393677,1066.823120 1202.606201,1062.070679 1193.548950,1054.214722 
	C1180.085083,1042.536377 1166.891479,1030.531738 1153.895020,1018.333313 
	C1136.399414,1001.912109 1119.115234,985.262329 1101.940430,968.505432 
	C1098.074341,964.733398 1095.164917,964.399353 1090.981201,967.992981 
	C1072.907959,983.517029 1054.664917,998.844177 1036.424316,1014.172485 
	C1014.228149,1032.824951 992.190369,1051.681030 967.030884,1066.418945 
	C949.566895,1076.648926 931.197388,1084.712524 911.354980,1088.778687 
	C884.790283,1094.222412 860.873169,1089.431641 842.202332,1068.199707 
	C827.243713,1051.189209 812.874817,1033.656738 797.790833,1016.760681 
	C785.261841,1002.726501 772.047729,989.305115 759.194763,975.558350 
	C756.247925,972.406738 754.139526,972.773071 751.032471,975.809143 
	C726.350952,999.926270 704.540039,1026.266479 688.234924,1056.811279 
	C685.558777,1061.824707 683.915955,1067.696289 683.135620,1073.356079 
	C681.039612,1088.557129 670.896362,1096.586792 658.425781,1102.799438 
	C647.894226,1108.045898 638.600586,1104.855347 630.998840,1097.214844 
	C625.413452,1091.600952 620.333923,1085.185425 616.316162,1078.368530 
	C605.860962,1060.630005 595.983093,1042.545166 586.146851,1024.450684 
	C581.918030,1016.671509 581.123596,1008.591064 585.582764,1000.312927 
	C594.720276,983.349915 617.993713,984.591370 627.063721,998.598633 
	C631.850220,1005.990906 635.808411,1013.919617 640.137512,1021.607849 
	C641.991333,1024.899902 643.837219,1028.196411 645.999634,1032.048340 
	C646.935608,1030.721924 647.552124,1030.016602 647.983765,1029.212036 
	C663.794800,999.740173 684.304443,973.832581 707.833740,950.207092 
	C714.536804,943.476685 721.383606,936.874146 727.809875,929.886841 
	C738.625793,918.126587 757.236877,916.384155 769.168274,923.561707 
	C780.327698,930.274902 791.176392,938.244629 800.245483,947.532471 
	C816.982483,964.673279 832.345337,983.158569 848.224670,1001.133179 
	C857.599243,1011.744690 867.204529,1022.179077 876.075317,1033.200806 
	C883.243774,1042.107178 891.731445,1043.026855 902.079651,1040.734009 
	C924.666138,1035.729492 944.473999,1024.948975 962.276550,1010.904114 
	C988.688843,990.066833 1014.217773,968.109863 1040.383789,946.389038 
M612.105469,1007.922058 
	C616.327698,1004.091919 617.403748,998.716003 614.763123,994.644653 
	C612.488892,991.138062 607.457153,989.758972 603.156860,991.463501 
	C599.099304,993.071838 597.100098,997.238647 597.997375,1002.216797 
	C599.030090,1007.946106 604.061218,1010.226013 612.105469,1007.922058 
z"/>
<path fill="#6494FF" opacity="1.000000" stroke="none" 
	d="
M1263.916504,455.332916 
	C1274.662964,451.881592 1280.003906,455.852509 1280.051147,466.918365 
	C1280.073975,472.235931 1280.034424,477.553802 1280.053589,482.871399 
	C1280.070068,487.386475 1279.327881,491.786896 1283.132935,495.769836 
	C1286.007690,498.779114 1285.433105,503.452728 1282.537720,506.264435 
	C1279.278564,509.429443 1279.964355,512.714233 1280.300293,516.281555 
	C1280.563843,519.079834 1280.867065,521.877136 1281.028564,524.681946 
	C1281.609741,534.772644 1271.941406,539.147156 1264.480957,533.997559 
	C1262.722412,529.627502 1261.334351,525.333679 1259.741455,520.551758 
	C1260.918701,512.546814 1259.519043,508.782562 1254.760986,508.243225 
	C1246.844116,507.345795 1238.897583,506.687286 1230.952881,506.063354 
	C1220.353394,505.230896 1209.737427,504.603119 1199.139526,503.752289 
	C1180.444702,502.251404 1161.783813,500.101929 1143.061768,499.221436 
	C1117.635620,498.025665 1092.159668,497.934845 1066.715820,497.056732 
	C1045.120972,496.311462 1023.541565,495.120392 1001.955200,494.129059 
	C979.036621,493.076569 956.115295,492.081085 933.200745,490.948425 
	C924.577026,490.522156 915.976379,489.597870 907.351196,489.241119 
	C900.434143,488.955048 893.495850,489.183319 886.261292,489.183319 
	C885.816711,496.849213 885.394958,504.121826 884.973206,511.394440 
	C884.654541,513.464111 884.158691,515.524475 884.049866,517.605164 
	C883.695068,524.389282 881.476501,527.202332 874.412964,529.070557 
	C867.053528,527.684814 863.710999,524.085205 864.014954,517.145203 
	C864.464050,506.890442 865.774841,496.666779 866.031006,486.412689 
	C866.185608,480.223572 864.998718,474.005127 864.494019,467.793396 
	C864.266541,464.993256 863.695496,462.070282 864.229553,459.392334 
	C865.163452,454.709259 867.702454,451.101349 873.547729,450.851959 
	C881.315735,452.324463 883.065857,454.186859 884.143066,462.501831 
	C883.899048,468.386993 887.540894,468.710419 891.145508,468.895782 
	C904.888611,469.602325 918.639038,470.171844 932.379089,470.931030 
	C948.782349,471.837433 965.170776,473.024628 981.578125,473.839386 
	C1004.629822,474.984100 1027.691040,475.945984 1050.751831,476.894867 
	C1068.510620,477.625580 1086.274170,478.718231 1104.037476,478.756714 
	C1134.294800,478.822266 1164.479980,479.738251 1194.582642,482.942963 
	C1205.130249,484.065857 1215.711670,484.880310 1226.282959,485.772186 
	C1237.302734,486.701874 1248.328979,487.555115 1259.839233,488.480957 
	C1259.839233,482.544586 1259.839233,476.760590 1259.839233,470.976624 
	C1259.928833,465.555359 1259.279419,459.946503 1263.916504,455.332916 
z"/>
<path fill="#B1F3EC" opacity="1.000000" stroke="none" 
	d="
M885.446167,511.412964 
	C885.394958,504.121826 885.816711,496.849213 886.261292,489.183319 
	C893.495850,489.183319 900.434143,488.955048 907.351196,489.241119 
	C915.976379,489.597870 924.577026,490.522156 933.200745,490.948425 
	C956.115295,492.081085 979.036621,493.076569 1001.955200,494.129059 
	C1023.541565,495.120392 1045.120972,496.311462 1066.715820,497.056732 
	C1092.159668,497.934845 1117.635620,498.025665 1143.061768,499.221436 
	C1161.783813,500.101929 1180.444702,502.251404 1199.139526,503.752289 
	C1209.737427,504.603119 1220.353394,505.230896 1230.952881,506.063354 
	C1238.897583,506.687286 1246.844116,507.345795 1254.760986,508.243225 
	C1259.519043,508.782562 1260.918701,512.546814 1259.375977,520.409424 
	C1241.834717,520.207886 1224.454346,519.658142 1207.073486,519.116943 
	C1205.242188,519.059937 1203.409302,519.060974 1201.577271,519.021362 
	C1185.646606,518.676392 1169.712402,518.440918 1153.786133,517.950684 
	C1136.571289,517.420776 1119.364502,516.629089 1102.152710,515.993652 
	C1083.273315,515.296509 1064.361572,515.115234 1045.517578,513.888123 
	C992.349182,510.425812 939.125610,511.720062 885.446167,511.412964 
z"/>
<path fill="#B0F3EC" opacity="1.000000" stroke="none" 
	d="
M1259.481934,471.180939 
	C1259.839233,476.760590 1259.839233,482.544586 1259.839233,488.480957 
	C1248.328979,487.555115 1237.302734,486.701874 1226.282959,485.772186 
	C1215.711670,484.880310 1205.130249,484.065857 1194.582642,482.942963 
	C1164.479980,479.738251 1134.294800,478.822266 1104.037476,478.756714 
	C1086.274170,478.718231 1068.510620,477.625580 1050.751831,476.894867 
	C1027.691040,475.945984 1004.629822,474.984100 981.578125,473.839386 
	C965.170776,473.024628 948.782349,471.837433 932.379089,470.931030 
	C918.639038,470.171844 904.888611,469.602325 891.145508,468.895782 
	C887.540894,468.710419 883.899048,468.386993 884.160034,462.872803 
	C911.661804,462.483643 939.144409,462.343018 966.622864,462.616852 
	C990.542664,462.855194 1014.460205,463.466248 1038.374023,464.093903 
	C1055.084351,464.532471 1071.787109,465.269287 1088.492676,465.886444 
	C1107.528809,466.589691 1126.564575,467.303070 1145.600220,468.021179 
	C1161.812866,468.632751 1178.023804,469.288239 1194.237671,469.865417 
	C1205.824463,470.277924 1217.415894,470.560333 1229.003174,470.962463 
	C1237.446289,471.255463 1245.884644,471.690247 1254.328369,471.961304 
	C1255.919312,472.012360 1257.525513,471.589447 1259.481934,471.180939 
z"/>
<path fill="#6494FF" opacity="1.000000" stroke="none" 
	d="
M712.639038,628.673218 
	C706.538269,632.465088 700.421753,635.652100 695.074097,639.824585 
	C692.038513,642.193115 689.852112,645.964478 688.036804,649.491821 
	C686.313843,652.839905 685.883179,656.833191 684.324707,660.290527 
	C682.198425,665.007263 677.896423,666.961121 673.267334,665.942932 
	C668.931335,664.989136 665.525391,660.919495 666.020203,655.927917 
	C667.420288,641.803711 672.194519,629.613037 685.286072,621.763672 
	C694.378174,616.312256 703.368958,610.460693 711.504761,603.703857 
	C721.685486,595.248718 725.237915,583.256653 725.949646,570.337769 
	C727.362061,544.702393 719.921204,521.520874 707.165710,499.563171 
	C699.751160,486.799622 691.702820,474.122864 688.889282,459.300995 
	C684.515137,436.257263 692.092346,417.242950 710.039246,402.603546 
	C719.638611,394.773315 730.680603,389.332275 743.004578,386.703918 
	C752.102295,384.763611 760.536072,386.768463 768.702942,390.365814 
	C774.404053,392.877045 776.573914,398.197235 774.680908,403.538055 
	C773.012634,408.244812 767.421143,411.212921 761.883545,408.825348 
	C751.619873,404.400116 742.503479,406.703491 733.256409,411.454010 
	C721.503113,417.492065 712.529724,425.915222 708.854858,438.983307 
	C705.600037,450.557312 709.467957,461.001587 714.627197,471.075195 
	C721.304016,484.112122 728.865784,496.738098 734.853882,510.076416 
	C746.264832,535.493958 749.627014,562.127625 743.005371,589.421143 
	C738.821106,606.668213 727.215271,618.726807 712.639038,628.673218 
z"/>
<path fill="#6494FF" opacity="1.000000" stroke="none" 
	d="
M524.335205,540.327637 
	C525.511902,539.115601 526.448914,538.167786 527.357483,537.193604 
	C535.070374,528.924011 536.751953,519.795715 532.186035,509.219543 
	C525.917419,494.699402 517.665894,481.601837 506.687592,470.182495 
	C496.777924,459.874786 486.405762,449.915527 477.403748,438.853607 
	C463.470001,421.731537 466.728821,391.492828 497.549469,385.161774 
	C501.739288,384.301117 506.130310,383.961639 510.406647,384.090973 
	C516.347229,384.270599 520.011353,388.418243 519.982117,394.055481 
	C519.952759,399.727661 516.298706,403.375000 510.305054,404.052216 
	C506.376831,404.496033 502.358826,404.861145 498.607361,406.004242 
	C490.880646,408.358582 487.342316,414.668793 491.111786,421.891266 
	C494.644287,428.659698 500.025757,434.581970 505.168549,440.365326 
	C514.657104,451.035797 525.367554,460.710510 534.087952,471.949249 
	C543.882263,484.572083 551.550232,498.682373 554.438904,514.835388 
	C555.797546,522.432861 555.193420,529.702515 551.682007,536.679321 
	C546.650818,546.675659 539.941711,555.510376 530.635681,561.582397 
	C512.513977,573.406494 502.159058,590.961731 493.096893,609.677551 
	C492.081635,611.774231 491.091736,613.885742 490.171356,616.025330 
	C485.627930,626.587036 486.236511,637.005798 490.670929,647.498474 
	C491.923157,650.461487 492.842743,653.957336 492.555328,657.083862 
	C492.156891,661.418152 488.913879,664.201599 484.565155,664.867554 
	C480.015900,665.564270 476.191559,663.743652 474.169281,659.599121 
	C467.896332,646.743042 464.356476,633.200867 468.293427,619.054199 
	C474.029785,598.441528 484.581299,580.055908 497.770416,563.434082 
	C503.039703,556.793335 510.732910,552.078186 517.310059,546.471680 
	C519.587158,544.530701 521.826050,542.544983 524.335205,540.327637 
z"/>
<path fill="#6494FF" opacity="1.000000" stroke="none" 
	d="
M1423.687134,430.330994 
	C1432.987305,435.097961 1441.785889,440.207672 1451.124146,443.982971 
	C1463.912720,449.153290 1477.124146,453.272766 1490.130249,457.910492 
	C1507.460083,464.090027 1519.585815,475.426697 1521.700317,494.231110 
	C1523.691284,511.937683 1521.283691,529.448242 1514.008423,545.993713 
	C1508.465942,558.598083 1501.055176,569.953613 1491.594360,580.019958 
	C1484.515137,587.552307 1475.826538,592.015625 1466.106323,595.020691 
	C1450.553833,599.828979 1434.702881,603.752686 1420.255005,611.737305 
	C1407.983887,618.518982 1397.373047,627.047302 1388.604004,638.017883 
	C1382.000366,646.279602 1380.103149,655.397095 1382.149780,665.583130 
	C1383.549683,672.550049 1381.337769,676.915100 1375.653564,678.661072 
	C1370.510010,680.240906 1364.966431,677.348267 1363.079224,670.933716 
	C1359.136719,657.533875 1360.716431,644.297424 1368.100586,632.578369 
	C1382.400391,609.884277 1403.562744,595.492737 1428.183960,585.933533 
	C1436.075439,582.869690 1444.156860,579.927856 1452.419922,578.263855 
	C1470.479370,574.627014 1481.838745,563.236206 1490.540283,548.015991 
	C1499.046387,533.137756 1502.685181,517.189331 1502.044434,500.156128 
	C1501.688232,490.689453 1497.773193,483.155151 1488.897949,479.508484 
	C1476.909180,474.582611 1464.482422,470.729584 1452.443970,465.915497 
	C1440.729614,461.231018 1428.858887,456.676575 1417.776978,450.724182 
	C1391.590942,436.659088 1392.475586,406.649384 1409.209351,390.830078 
	C1430.094238,371.086578 1454.690796,357.711456 1484.607056,358.011139 
	C1496.889771,358.134186 1509.168335,359.202576 1521.436523,360.023468 
	C1527.678101,360.441132 1531.321167,364.592560 1531.123901,370.499756 
	C1530.935303,376.145844 1526.826050,380.145447 1520.435791,379.926697 
	C1509.148438,379.540283 1497.885742,378.387878 1486.598145,378.062347 
	C1461.513916,377.338959 1441.418091,388.918304 1423.574097,405.006012 
	C1415.648560,412.151367 1416.102051,422.633392 1423.687134,430.330994 
z"/>
<path fill="#6494FF" opacity="1.000000" stroke="none" 
	d="
M1650.843262,464.133728 
	C1655.237061,476.934235 1659.714966,489.260956 1663.825073,501.709106 
	C1668.770264,516.686462 1675.006958,531.473022 1677.828125,546.865784 
	C1683.270386,576.561707 1675.358276,602.099792 1648.562622,619.178101 
	C1634.539551,628.115845 1619.946533,636.160706 1605.940796,645.124084 
	C1594.019287,652.753601 1582.599243,661.174866 1573.918213,672.636902 
	C1571.820312,675.406860 1570.112061,678.481506 1568.328125,681.477722 
	C1564.983765,687.094299 1559.668213,689.334045 1555.023682,686.991333 
	C1549.706055,684.309082 1547.358521,678.355103 1550.555908,672.551941 
	C1554.056885,666.198059 1558.126465,659.950256 1562.976074,654.585449 
	C1577.662720,638.338196 1596.072388,626.964050 1614.789917,615.952637 
	C1625.782104,609.485901 1636.524414,602.438110 1646.640869,594.687805 
	C1654.994263,588.288208 1657.453247,578.299500 1659.036499,568.229370 
	C1661.024048,555.588989 1657.441406,543.795166 1653.398926,532.212524 
	C1647.755737,516.043457 1641.417114,500.118042 1635.451050,484.060486 
	C1624.897095,455.654449 1627.188354,428.647614 1644.194092,403.170227 
	C1650.581421,393.600861 1656.584839,383.790619 1667.231812,378.147430 
	C1678.297729,372.282166 1689.799194,371.833771 1701.526001,375.444183 
	C1706.814331,377.072388 1709.350342,382.597290 1707.873779,387.974274 
	C1706.637939,392.473785 1701.338257,395.929932 1696.441284,394.536682 
	C1682.876587,390.677429 1672.801147,395.416199 1665.887939,406.949707 
	C1660.610229,415.754425 1655.733765,424.885223 1651.636963,434.288391 
	C1647.515015,443.749146 1648.609131,453.825012 1650.843262,464.133728 
z"/>
<path fill="#6798FE" opacity="1.000000" stroke="none" 
	d="
M611.741089,1008.100952 
	C604.061218,1010.226013 599.030090,1007.946106 597.997375,1002.216797 
	C597.100098,997.238647 599.099304,993.071838 603.156860,991.463501 
	C607.457153,989.758972 612.488892,991.138062 614.763123,994.644653 
	C617.403748,998.716003 616.327698,1004.091919 611.741089,1008.100952 
z"/>
</svg>